<svg width="162" height="52" viewBox="0 0 162 52" fill="none" xmlns="http://www.w3.org/2000/svg">
<rect width="162" height="52" rx="10" fill="#4D77FF"/>
<path d="M41.856 32.24C40.7093 32.24 39.736 31.9867 38.936 31.48C38.136 30.9733 37.5253 30.2693 37.104 29.368C36.688 28.4667 36.48 27.424 36.48 26.24C36.48 25.056 36.688 24.0133 37.104 23.112C37.5253 22.2107 38.136 21.5067 38.936 21C39.736 20.4933 40.7093 20.24 41.856 20.24C43.1893 20.24 44.2853 20.5787 45.144 21.256C46.008 21.9333 46.6027 22.8453 46.928 23.992L45.48 24.376C45.2453 23.5173 44.8267 22.84 44.224 22.344C43.6213 21.848 42.832 21.6 41.856 21.6C40.9973 21.6 40.2827 21.7947 39.712 22.184C39.1413 22.5733 38.712 23.1173 38.424 23.816C38.136 24.5093 37.9893 25.3173 37.984 26.24C37.9787 27.1573 38.12 27.9653 38.408 28.664C38.696 29.3573 39.128 29.9013 39.704 30.296C40.28 30.6853 40.9973 30.88 41.856 30.88C42.832 30.88 43.6213 30.632 44.224 30.136C44.8267 29.6347 45.2453 28.9573 45.48 28.104L46.928 28.488C46.6027 29.6293 46.008 30.5413 45.144 31.224C44.2853 31.9013 43.1893 32.24 41.856 32.24ZM52.8425 32.24C51.9838 32.24 51.2425 32.0453 50.6185 31.656C49.9998 31.2667 49.5225 30.728 49.1865 30.04C48.8505 29.352 48.6825 28.5627 48.6825 27.672C48.6825 26.7653 48.8532 25.9707 49.1945 25.288C49.5358 24.6053 50.0185 24.0747 50.6425 23.696C51.2665 23.312 51.9998 23.12 52.8425 23.12C53.7065 23.12 54.4505 23.3147 55.0745 23.704C55.6985 24.088 56.1758 24.624 56.5065 25.312C56.8425 25.9947 57.0105 26.7813 57.0105 27.672C57.0105 28.5733 56.8425 29.368 56.5065 30.056C56.1705 30.7387 55.6905 31.2747 55.0665 31.664C54.4425 32.048 53.7012 32.24 52.8425 32.24ZM52.8425 30.888C53.7385 30.888 54.4052 30.5893 54.8425 29.992C55.2798 29.3947 55.4985 28.6213 55.4985 27.672C55.4985 26.696 55.2772 25.92 54.8345 25.344C54.3918 24.7627 53.7278 24.472 52.8425 24.472C52.2398 24.472 51.7438 24.608 51.3545 24.88C50.9652 25.152 50.6745 25.528 50.4825 26.008C50.2905 26.488 50.1945 27.0427 50.1945 27.672C50.1945 28.6427 50.4185 29.4213 50.8665 30.008C51.3145 30.5947 51.9732 30.888 52.8425 30.888ZM65.4039 32V27.672C65.4039 27.2613 65.3665 26.8667 65.2919 26.488C65.2225 26.1093 65.0972 25.7707 64.9159 25.472C64.7399 25.168 64.4999 24.928 64.1959 24.752C63.8972 24.576 63.5185 24.488 63.0599 24.488C62.7025 24.488 62.3772 24.5493 62.0839 24.672C61.7959 24.7893 61.5479 24.9707 61.3399 25.216C61.1319 25.4613 60.9692 25.7707 60.8519 26.144C60.7399 26.512 60.6839 26.9467 60.6839 27.448L59.7479 27.16C59.7479 26.3227 59.8972 25.6053 60.1959 25.008C60.4999 24.4053 60.9239 23.944 61.4679 23.624C62.0172 23.2987 62.6625 23.136 63.4039 23.136C63.9639 23.136 64.4412 23.224 64.8359 23.4C65.2305 23.576 65.5585 23.8107 65.8199 24.104C66.0812 24.392 66.2865 24.7173 66.4359 25.08C66.5852 25.4373 66.6892 25.8027 66.7479 26.176C66.8119 26.544 66.8439 26.8933 66.8439 27.224V32H65.4039ZM59.2439 32V23.36H60.5239V25.672H60.6839V32H59.2439ZM74.2277 32C73.7157 32.1013 73.2091 32.1413 72.7077 32.12C72.2117 32.104 71.7691 32.0053 71.3797 31.824C70.9904 31.6373 70.6944 31.3493 70.4917 30.96C70.3211 30.6187 70.2277 30.2747 70.2117 29.928C70.2011 29.576 70.1957 29.1787 70.1957 28.736V20.96H71.6197V28.672C71.6197 29.024 71.6224 29.3253 71.6277 29.576C71.6384 29.8267 71.6944 30.0427 71.7957 30.224C71.9877 30.5653 72.2917 30.7653 72.7077 30.824C73.1291 30.8827 73.6357 30.8667 74.2277 30.776V32ZM68.4437 24.536V23.36H74.2277V24.536H68.4437ZM78.9179 32.24C78.2725 32.24 77.7312 32.1227 77.2939 31.888C76.8619 31.648 76.5339 31.3333 76.3099 30.944C76.0912 30.5547 75.9819 30.128 75.9819 29.664C75.9819 29.2107 76.0672 28.8187 76.2379 28.488C76.4139 28.152 76.6592 27.8747 76.9739 27.656C77.2885 27.432 77.6645 27.256 78.1019 27.128C78.5125 27.016 78.9712 26.92 79.4779 26.84C79.9899 26.7547 80.5072 26.6773 81.0299 26.608C81.5525 26.5387 82.0405 26.472 82.4939 26.408L81.9819 26.704C81.9979 25.936 81.8432 25.368 81.5179 25C81.1979 24.632 80.6432 24.448 79.8539 24.448C79.3312 24.448 78.8725 24.568 78.4779 24.808C78.0885 25.0427 77.8139 25.4267 77.6539 25.96L76.3019 25.552C76.5099 24.7947 76.9125 24.2 77.5099 23.768C78.1072 23.336 78.8939 23.12 79.8699 23.12C80.6539 23.12 81.3259 23.2613 81.8859 23.544C82.4512 23.8213 82.8565 24.2427 83.1019 24.808C83.2245 25.0747 83.3019 25.3653 83.3339 25.68C83.3659 25.9893 83.3819 26.3147 83.3819 26.656V32H82.1179V29.928L82.4139 30.12C82.0885 30.8187 81.6325 31.3467 81.0459 31.704C80.4645 32.0613 79.7552 32.24 78.9179 32.24ZM79.1339 31.048C79.6459 31.048 80.0885 30.9573 80.4619 30.776C80.8405 30.5893 81.1445 30.3467 81.3739 30.048C81.6032 29.744 81.7525 29.4133 81.8219 29.056C81.9019 28.7893 81.9445 28.4933 81.9499 28.168C81.9605 27.8373 81.9659 27.584 81.9659 27.408L82.4619 27.624C81.9979 27.688 81.5419 27.7493 81.0939 27.808C80.6459 27.8667 80.2219 27.9307 79.8219 28C79.4219 28.064 79.0619 28.1413 78.7419 28.232C78.5072 28.3067 78.2859 28.4027 78.0779 28.52C77.8752 28.6373 77.7099 28.7893 77.5819 28.976C77.4592 29.1573 77.3979 29.384 77.3979 29.656C77.3979 29.8907 77.4565 30.1147 77.5739 30.328C77.6965 30.5413 77.8832 30.7147 78.1339 30.848C78.3899 30.9813 78.7232 31.048 79.1339 31.048ZM89.5819 32.24C88.7072 32.24 87.9632 32.0453 87.3499 31.656C86.7419 31.2613 86.2779 30.72 85.9579 30.032C85.6379 29.344 85.4725 28.56 85.4619 27.68C85.4725 26.7787 85.6405 25.9867 85.9659 25.304C86.2965 24.616 86.7685 24.08 87.3819 23.696C87.9952 23.312 88.7339 23.12 89.5979 23.12C90.5099 23.12 91.2939 23.344 91.9499 23.792C92.6112 24.24 93.0539 24.8533 93.2779 25.632L91.8699 26.056C91.6885 25.5547 91.3925 25.1653 90.9819 24.888C90.5765 24.6107 90.1099 24.472 89.5819 24.472C88.9899 24.472 88.5019 24.6107 88.1179 24.888C87.7339 25.16 87.4485 25.5387 87.2619 26.024C87.0752 26.504 86.9792 27.056 86.9739 27.68C86.9845 28.64 87.2059 29.416 87.6379 30.008C88.0752 30.5947 88.7232 30.888 89.5819 30.888C90.1472 30.888 90.6165 30.76 90.9899 30.504C91.3632 30.2427 91.6459 29.8667 91.8379 29.376L93.2779 29.752C92.9792 30.5573 92.5125 31.1733 91.8779 31.6C91.2432 32.0267 90.4779 32.24 89.5819 32.24ZM100.215 32C99.7026 32.1013 99.196 32.1413 98.6946 32.12C98.1986 32.104 97.756 32.0053 97.3666 31.824C96.9773 31.6373 96.6813 31.3493 96.4786 30.96C96.308 30.6187 96.2146 30.2747 96.1986 29.928C96.188 29.576 96.1826 29.1787 96.1826 28.736V20.96H97.6066V28.672C97.6066 29.024 97.6093 29.3253 97.6146 29.576C97.6253 29.8267 97.6813 30.0427 97.7826 30.224C97.9746 30.5653 98.2786 30.7653 98.6946 30.824C99.116 30.8827 99.6226 30.8667 100.215 30.776V32ZM94.4306 24.536V23.36H100.215V24.536H94.4306ZM110.676 32.24C109.785 32.24 108.999 32.056 108.316 31.688C107.633 31.32 107.097 30.8053 106.708 30.144C106.324 29.4773 106.132 28.696 106.132 27.8V20.488L107.572 20.48V27.68C107.572 28.224 107.663 28.6987 107.844 29.104C108.031 29.504 108.276 29.8373 108.58 30.104C108.884 30.3707 109.217 30.5707 109.58 30.704C109.948 30.832 110.313 30.896 110.676 30.896C111.044 30.896 111.412 30.8293 111.78 30.696C112.148 30.5627 112.481 30.3653 112.78 30.104C113.084 29.8373 113.327 29.5013 113.508 29.096C113.689 28.6907 113.78 28.2187 113.78 27.68V20.48H115.22V27.8C115.22 28.6907 115.025 29.4693 114.636 30.136C114.252 30.8027 113.719 31.32 113.036 31.688C112.353 32.056 111.567 32.24 110.676 32.24ZM121.204 32.232C120.175 32.232 119.329 32.008 118.668 31.56C118.012 31.1067 117.609 30.4747 117.46 29.664L118.916 29.432C119.033 29.9013 119.303 30.2747 119.724 30.552C120.145 30.824 120.668 30.96 121.292 30.96C121.884 30.96 122.348 30.8373 122.684 30.592C123.02 30.3467 123.188 30.0133 123.188 29.592C123.188 29.3467 123.132 29.1493 123.02 29C122.908 28.8453 122.676 28.7013 122.324 28.568C121.977 28.4347 121.452 28.2747 120.748 28.088C119.985 27.8853 119.385 27.6747 118.948 27.456C118.511 27.2373 118.199 26.984 118.012 26.696C117.825 26.408 117.732 26.0587 117.732 25.648C117.732 25.1413 117.871 24.6987 118.148 24.32C118.425 23.936 118.812 23.64 119.308 23.432C119.809 23.224 120.391 23.12 121.052 23.12C121.708 23.12 122.295 23.224 122.812 23.432C123.329 23.64 123.745 23.936 124.06 24.32C124.38 24.6987 124.569 25.1413 124.628 25.648L123.172 25.912C123.103 25.448 122.879 25.0827 122.5 24.816C122.127 24.5493 121.644 24.408 121.052 24.392C120.492 24.3707 120.036 24.4693 119.684 24.688C119.337 24.9067 119.164 25.2027 119.164 25.576C119.164 25.784 119.228 25.9627 119.356 26.112C119.489 26.2613 119.732 26.4027 120.084 26.536C120.441 26.6693 120.959 26.8213 121.636 26.992C122.399 27.184 122.999 27.3947 123.436 27.624C123.879 27.848 124.193 28.1147 124.38 28.424C124.567 28.728 124.66 29.104 124.66 29.552C124.66 30.384 124.353 31.04 123.74 31.52C123.127 31.9947 122.281 32.232 121.204 32.232Z" fill="white"/>
</svg>
